# xmcd
#
# Track frame offsets: 
#        183
#        12570
#        24283
#        36683
#        49933
#        63258
#        76683
#        89008
#        100620
#        113233
#        125983
#        137895
#        149495
#        160383
#        172308
#        184845
#        195753
#        207070
#        219508
#        231195
#
# Disc length: 3245 seconds
#
# Revision: 3
# Processed by: cddbd v1.5.2PL0 Copyright (c) Steve Scherf et al.
# Submitted via: ExactAudioCopyFreeDBPlugin 1.0
#
DISCID=260cab14
DTITLE=Hank Williams - 40 Greatest Hits [RE 1988 CD 1]
DYEAR=1978
DGENRE=Country
TTITLE0=Move It On Over
TTITLE1=A Mansion On The Hill
TTITLE2=Lovesick Blues
TTITLE3=Wedding Bells
TTITLE4=Mind Your Own Business
TTITLE5=You're Gonna Change (Or I'm Gonna Leave)
TTITLE6=Lost Highway
TTITLE7=My Bucket's Got A Hole In It
TTITLE8=I'm So Lonesome I Could Cry
TTITLE9=I Just Don't Like This Kind Of Living
TTITLE10=Long Gone Lonesome Blues
TTITLE11=My Son Calls Another Man Daddy
TTITLE12=Why Don't You Love Me
TTITLE13=Why Should We Try Anymore
TTITLE14=They'll Never Take Her Love From Me
TTITLE15=Moanin' The Blues
TTITLE16=Nobody's Lonesome For Me
TTITLE17=Cold, Cold Heart
TTITLE18=Dear John
TTITLE19=Howlin' At The Moon
EXTD=Mastered from Original Mono Tapes and 78 RPM Discs
EXTT0=
EXTT1=
EXTT2=
EXTT3=
EXTT4=
EXTT5=
EXTT6=
EXTT7=
EXTT8=
EXTT9=
EXTT10=
EXTT11=
EXTT12=
EXTT13=
EXTT14=
EXTT15=
EXTT16=
EXTT17=
EXTT18=
EXTT19=
PLAYORDER=
